PathFileType	4	(X/Y/Z)	motion_data.trc
DataRate	CameraRate	NumFrames	NumMarkers	Units	OrigDataRate	OrigDataStartFrame	OrigNumFrames
30.0	30.0	41	3	mm	30.0	543	2170
Frame#	Time	r_acromion			r_humerus_epicondyle			r_radius_styloid		
		X1	Y1	Z1	X2	Y2	Z2	X3	Y3	Z3

543	18.0667	397.0795	573.3330	-56.3362	299.4293	510.7330	-86.2819	323.1490	485.4508	-167.2936
544	18.1000	396.5845	573.1216	-58.3678	300.4293	511.2997	-95.6563	310.6860	485.8128	-184.1034
545	18.1333	395.5121	572.9601	-65.2958	303.4485	512.2396	-110.2076	304.5216	486.5724	-208.5913
546	18.1667	394.5329	572.8583	-71.1131	309.0722	513.8128	-118.8638	303.9398	487.4079	-224.3613
547	18.2000	394.4002	572.7524	-75.3205	317.8011	515.8736	-121.6744	306.3372	487.8257	-230.5753
548	18.2333	395.4867	572.6587	-83.7831	328.5207	517.8739	-128.9324	311.7145	487.5753	-240.2855
549	18.2667	397.6206	572.7432	-100.2984	338.1207	519.3349	-147.0562	323.1123	487.0255	-261.3815
550	18.3000	400.2026	573.1566	-118.7721	343.7560	520.1930	-167.6877	342.2674	486.9452	-282.6350
551	18.3333	402.6596	573.8140	-127.0199	345.9609	520.5098	-174.2055	366.5263	487.5205	-283.3204
552	18.3667	404.9789	574.3933	-120.2260	348.6969	519.8683	-160.3970	390.7799	487.4960	-258.0822
553	18.4000	407.7055	574.5768	-107.2008	355.2956	517.4540	-138.3037	410.9887	484.8410	-225.9785
554	18.4333	411.2734	574.3038	-99.1348	364.6108	513.1144	-123.3534	425.2450	478.8496	-208.7811
555	18.4667	415.3867	573.8051	-95.2046	372.0652	508.1429	-116.0491	433.1916	471.4357	-205.3776
556	18.5000	419.1722	573.4131	-85.9148	374.3690	504.5099	-105.2566	435.7819	465.7797	-196.6640
557	18.5333	421.9736	573.3137	-70.5409	372.3762	503.2154	-87.5542	435.0409	463.5530	-173.4472
558	18.5667	423.9471	573.4216	-63.7782	369.3642	503.6153	-75.0212	433.1928	463.7357	-149.1430
559	18.6000	425.8314	573.4610	-79.7744	367.5715	504.2967	-80.7570	431.7268	464.1395	-142.2138
560	18.6333	428.1963	573.1885	-112.8697	366.9251	504.3597	-101.4962	430.9829	463.6962	-153.3539
561	18.6667	430.9807	572.5942	-140.6644	366.3474	503.9330	-119.5775	430.4022	463.1077	-165.3735
562	18.7000	433.6588	571.9092	-146.0066	365.3063	503.7710	-120.9491	429.6136	463.6000	-162.7912
563	18.7333	435.7830	571.3988	-130.9925	364.1509	504.4240	-107.3207	429.8004	465.4637	-146.7552
564	18.7667	437.4983	571.1420	-110.0115	363.7740	505.6036	-91.3599	433.5000	467.8725	-131.3723
565	18.8000	439.6077	571.0290	-95.1927	365.3445	506.3034	-84.5072	442.0030	469.9025	-129.9903
566	18.8333	442.9370	570.9687	-90.0390	369.8677	505.6877	-89.9475	453.1149	471.4754	-145.6050
567	18.8667	447.4076	571.0518	-92.2842	377.3508	503.8892	-103.0124	462.8629	473.1074	-169.8006
568	18.9000	451.8415	571.4760	-99.1782	386.4439	501.8150	-116.3090	469.6939	474.7443	-189.2301
569	18.9333	455.0040	572.3310	-109.9703	395.3988	500.2404	-126.1042	475.5998	475.2305	-196.6839
570	18.9667	456.8717	573.4797	-124.2617	403.3566	499.2965	-134.1855	482.5498	473.3560	-196.9778
571	19.0000	458.5606	574.6231	-139.7098	410.2220	498.7656	-143.3231	489.2695	469.3694	-199.9335
572	19.0333	460.9541	575.4712	-153.0855	415.5196	498.5454	-152.7399	492.6814	465.0585	-208.3511
573	19.0667	463.7500	575.8983	-162.0319	418.3111	498.6602	-158.2810	491.6751	462.1951	-214.5894
574	19.1000	465.9408	575.9748	-163.3422	418.4127	498.9279	-154.7594	488.2970	461.0904	-207.8930
575	19.1333	466.8971	575.8555	-152.5561	416.9507	498.8143	-139.2395	485.5211	460.7306	-185.1114
576	19.1667	466.8291	575.6501	-130.8089	415.3926	497.8277	-116.0101	484.6883	460.0820	-156.3242
577	19.2000	466.3577	575.3972	-110.4371	414.3799	496.1228	-97.4568	485.1019	459.0506	-138.7159
578	19.2333	465.7749	575.0903	-106.3833	413.5949	494.4935	-94.8243	485.5631	458.2350	-141.4270
579	19.2667	464.8110	574.6778	-120.2240	412.4256	493.5748	-107.1290	485.8681	458.0151	-157.3207
580	19.3000	463.1793	574.0884	-137.7885	410.5784	493.2531	-122.5976	486.4454	458.1448	-172.5678
581	19.3333	461.1340	573.3320	-144.3650	408.1097	493.1256	-130.9036	486.5760	458.2695	-181.3204
582	19.3667	459.1657	572.5715	-138.4384	404.9557	493.3136	-130.5907	484.0600	458.5758	-186.0538
583	19.4000	457.2251	572.0396	-129.5439	400.6129	494.2880	-125.9833	477.8660	459.6169	-187.6961
